<?xml version="1.0" encoding="UTF-8"?>
<svg width="192px" height="228px" viewBox="0 0 192 228" xmlns="http://www.w3.org/2000/svg" xmlns:xlink="http://www.w3.org/1999/xlink" version="1.1">
 <!-- Generated by Pixelmator Pro 1.8 -->
 <g id="group">
  <g id="group-1">
   <path id="Path" d="M180.3 152.9 L180.3 121.7 C180.3 116.6 181.8 111.8 184.5 107.9 L186.9 104.3 C188.4 102.2 189 99.5 188.4 96.8 187.8 94.1 186.3 92 183.9 90.5 173.7 84.5 167.1 78.8 167.1 70.4 L167.1 31.1 C167.1 28.1 165.6 25.1 163.2 23.3 L139.5 5.6 C139.2 5.3 138.9 5.3 138.3 5 L138 5 C137.7 5 137.4 5 137.1 5 108.9 10.4 81.3 10.4 54.3 5 53.4 4.7 52.5 5 51.9 5.6 L28.2 23.3 C25.8 25.1 24.3 28.1 24.3 31.1 L24.3 70.4 C24.3 78.8 17.7 84.5 7.5 90.5 5.1 91.7 3.6 94.1 3 96.8 2.4 99.5 3 102.2 4.5 104.3 L6.9 107.9 C9.6 112.1 11.1 116.9 11.1 121.7 L11.1 153.2 C11.1 158.6 9.3 163.7 6 167.9 4.5 170 3.9 172.7 4.2 175.4 4.8 178.1 6.3 180.2 8.7 181.7 L71.7 220.7 C72.3 221 72.6 221 73.2 221 74.1 221 75 220.7 75.6 220.1 L96 197 115.8 220.1 C116.4 220.7 117.3 221 118.2 221 118.8 221 119.4 221 119.7 220.7 L182.7 181.7 C185.1 180.2 186.6 178.1 187.2 175.4 187.8 172.7 187.2 170 185.4 167.9 182.1 163.7 180.3 158.3 180.3 152.9 Z M132.6 11.9 L105.9 67.4 C103.2 73.1 99.9 78.5 96 83.3 92.1 78.5 88.8 73.1 86.1 67.4 L59.4 11.9 C71.4 14 83.4 14.9 95.4 14.9 107.7 15.2 120.3 14 132.6 11.9 Z M73.2 214.1 L12.3 176.6 C11.4 176 10.8 175.1 10.8 174.2 10.8 173.3 10.8 172.1 11.4 171.5 15.3 166.1 17.7 159.8 17.7 153.2 L17.7 121.7 C17.7 115.4 15.9 109.4 12.3 104.3 L9.9 101 C9.3 100.1 9.3 99.2 9.3 98.3 9.6 97.4 10.2 96.5 11.1 95.9 21.3 89.9 30.9 82.7 30.9 70.4 L30.9 31.1 C30.9 29.9 31.5 29 32.4 28.4 L53.1 12.8 80.7 70.1 C83.7 76.4 87.6 82.4 92.1 87.8 91.8 88.1 91.2 88.7 90.9 89 90.3 89.6 90 89.9 89.4 90.5 88.5 91.4 87.9 92 87 92.9 86.4 93.5 86.1 93.8 85.5 94.4 84.6 95.3 83.7 95.9 82.8 96.8 82.5 97.1 81.9 97.4 81.6 98 80.1 99.2 78.9 100.1 77.4 101 76.5 101.6 76.2 102.5 76.2 103.4 L76.2 172.4 C76.2 173 76.5 173.9 76.8 174.5 L92.4 192.8 Z M179.7 176.6 L118.8 214.1 98.4 190.4 81.6 171.2 81.6 104.9 C86.1 101.6 90.3 98.3 94.2 94.4 L98.1 90.5 C98.1 90.5 98.1 90.5 98.4 90.2 103.5 84.2 108 77.6 111.6 70.4 L139.2 13.1 159.9 28.7 C160.8 29.3 161.4 30.5 161.4 31.4 L161.4 70.7 C161.4 82.7 171 89.9 181.2 96.2 182.1 96.8 182.7 97.4 183 98.6 183.3 99.8 183 100.7 182.4 101.3 L180 104.9 C176.4 110 174.6 116 174.6 122.3 L174.6 153.8 C174.6 160.4 176.7 167 180.9 172.1 181.5 173 181.8 173.9 181.5 174.8 181.2 175.7 180.6 176 179.7 176.6 Z" fill="#000000" fill-opacity="1" stroke="none"/>
   <path id="Path-1" d="M98.4 110 C93 110 88.8 114.2 88.8 119.6 88.8 125 93 129.2 98.4 129.2 103.8 129.2 108 125 108 119.6 108 114.2 103.8 110 98.4 110 Z M98.4 123.2 C96.3 123.2 94.8 121.7 94.8 119.6 94.8 117.5 96.3 116 98.4 116 100.5 116 102 117.5 102 119.6 102 121.7 100.5 123.2 98.4 123.2 Z" fill="#000000" fill-opacity="1" stroke="none"/>
   <path id="Path-2" d="M98.4 136.4 C93 136.4 88.8 140.6 88.8 146 88.8 151.4 93 155.6 98.4 155.6 103.8 155.6 108 151.4 108 146 108 140.6 103.8 136.4 98.4 136.4 Z M98.4 149.3 C96.3 149.3 94.8 147.8 94.8 145.7 94.8 143.6 96.3 142.1 98.4 142.1 100.5 142.1 102 143.6 102 145.7 102 147.8 100.5 149.3 98.4 149.3 Z" fill="#000000" fill-opacity="1" stroke="none"/>
  </g>
 </g>
</svg>
